<svg xmlns="http://www.w3.org/2000/svg" width="82.809" height="69.007" viewBox="0 0 82.809 69.007">
  <g id="Group_4" data-name="Group 4" transform="translate(-804 -336)">
    <path id="Path_8" data-name="Path 8" d="M879.908,391.206H810.9a6.908,6.908,0,0,1-6.9-6.9V342.9a6.908,6.908,0,0,1,6.9-6.9h69.007a6.908,6.908,0,0,1,6.9,6.9v41.4A6.908,6.908,0,0,1,879.908,391.206ZM810.9,342.9v41.4h69.007V342.9Z" transform="translate(0)" fill="#559ad1"/>
    <path id="Path_9" data-name="Path 9" d="M818.45,369.685a3.452,3.452,0,0,1-3.45-3.45V353.585a3.45,3.45,0,1,1,6.9,0v12.649A3.452,3.452,0,0,1,818.45,369.685Z" transform="translate(26.954 34.636)" fill="#559ad1"/>
    <path id="Path_10" data-name="Path 10" d="M842.088,360.9h-27.6a3.45,3.45,0,0,1,0-6.9h27.6a3.45,3.45,0,0,1,0,6.9Z" transform="translate(17.238 44.106)" fill="#559ad1"/>
  </g>
</svg>
