<svg xmlns="http://www.w3.org/2000/svg" width="68.966" height="69.007" viewBox="0 0 68.966 69.007">
  <g id="Group_1" data-name="Group 1" transform="translate(-1386.008 -566.995)">
    <path id="Path_1" data-name="Path 1" d="M1399.465,636a2.872,2.872,0,0,1-1.9-.716l-9.477-8.333c-3.326-3.314-2.639-8.98,1.848-17.014,3.795-6.807,9.949-14.608,17.319-21.975,7.35-7.353,15.1-13.441,21.823-17.149,7.916-4.363,13.518-5,16.652-1.863l8.517,9.563a2.876,2.876,0,0,1-.267,4.082l-14.372,12.461a2.872,2.872,0,0,1-3.168.4l-9.646-4.82-17.189,17.189,4.823,9.647a2.883,2.883,0,0,1-.394,3.162L1401.644,635a2.893,2.893,0,0,1-1.978.992C1399.6,636,1399.531,636,1399.465,636ZM1440.4,572.81c-1.478,0-4.157.618-8.543,3.038-6.266,3.455-13.556,9.2-20.535,16.18-7.008,7.005-12.82,14.358-16.364,20.711-3.854,6.91-3.343,9.618-3,9.966l7.224,6.347,9.247-10.722-4.9-9.788a2.873,2.873,0,0,1,.541-3.317L1424.2,585.1a2.87,2.87,0,0,1,3.317-.54l9.782,4.892,10.722-9.3-6.272-7.057A2.427,2.427,0,0,0,1440.4,572.81Z" transform="translate(0 0)" fill="#559ad1"/>
  </g>
</svg>
